<svg width="16" height="16" viewBox="0 0 16 16" fill="none" xmlns="http://www.w3.org/2000/svg">
<g clip-path="url(#clip0_331_978)">
<path d="M7.99967 14.6667C11.6817 14.6667 14.6663 11.682 14.6663 8.00004C14.6663 4.31804 11.6817 1.33337 7.99967 1.33337C4.31767 1.33337 1.33301 4.31804 1.33301 8.00004C1.33301 11.682 4.31767 14.6667 7.99967 14.6667Z" stroke="#B91C1C" stroke-width="2" stroke-linecap="round" stroke-linejoin="round"/>
<g clip-path="url(#clip1_331_978)">
<path d="M8.28018 8.00006L9.26018 7.02006C9.29669 6.9828 9.31703 6.93264 9.31676 6.88047C9.3165 6.82831 9.29566 6.77835 9.25877 6.74146C9.22189 6.70458 9.17193 6.68374 9.11977 6.68347C9.0676 6.68321 9.01744 6.70354 8.98018 6.74006L8.00018 7.72006L7.02018 6.74006C6.98292 6.70354 6.93276 6.68321 6.88059 6.68347C6.82843 6.68374 6.77847 6.70458 6.74159 6.74146C6.7047 6.77835 6.68386 6.82831 6.6836 6.88047C6.68333 6.93264 6.70367 6.9828 6.74018 7.02006L7.72018 8.00006L6.74018 8.98006C6.70367 9.01732 6.68333 9.06748 6.6836 9.11964C6.68386 9.17181 6.7047 9.22176 6.74159 9.25865C6.77847 9.29554 6.82843 9.31638 6.88059 9.31664C6.93276 9.3169 6.98292 9.29657 7.02018 9.26006L8.00018 8.28006L8.98018 9.26006C9.01744 9.29657 9.0676 9.3169 9.11977 9.31664C9.17193 9.31638 9.22189 9.29554 9.25877 9.25865C9.29566 9.22176 9.3165 9.17181 9.31676 9.11964C9.31703 9.06748 9.29669 9.01732 9.26018 8.98006L8.28018 8.00006Z" stroke="#B91C1C"/>
</g>
</g>
<defs>
<clipPath id="clip0_331_978">
<rect width="16" height="16" fill="white"/>
</clipPath>
<clipPath id="clip1_331_978">
<rect width="4" height="4" fill="white" transform="translate(6 6)"/>
</clipPath>
</defs>
</svg>
